<?xml version="1.0" encoding="UTF-8"?>
<svg id="Layer_1" xmlns="http://www.w3.org/2000/svg" version="1.1" width="211.3172512" height="177.25" viewBox="0 0 211.3172512 177.25">
  <!-- Generator: Adobe Illustrator 29.2.1, SVG Export Plug-In . SVG Version: 2.1.0 Build 116)  -->
  <defs>
    <style>
      .st0 {
        fill: #ffad5b;
      }
    </style>
  </defs>
  <path class="st0" d="M202.5800018,58.7300224c-7.9799957-12.5200005-20.3699951-21.170002-34.8600006-24.3800011-3.3399963-.7400017-6.6900024-1.1500015-10.0299988-1.2700005C140.7599945,12.0200243,115.7699966.000024,88.6200027.000024,39.75.000024,0,39.7500229,0,88.6200256s39.75,88.6300049,88.6200027,88.6300049c27.1399994,0,52.1500015-12.0200043,69.0699997-33.0899963,9.8200073-.3300018,19.4199982-3.25,27.9199982-8.6799927,12.5200043-7.9800034,21.1699982-20.3700027,24.3800049-34.8600006,3.1999969-14.5.5700073-29.3700027-7.4100037-41.8899994v-.0000191ZM88.6200027,168.1500244c-43.8499985,0-79.5299988-35.6799927-79.5299988-79.5299988S44.7700005,9.1000242,88.6200027,9.1000242c22.1500015,0,42.6899948,8.9100008,57.659996,24.7300005-7.1900024,1.2400017-14.1199951,3.9000015-20.4499969,7.9399986-1.9899979,1.2700005-3.8600006,2.6599998-5.6500015,4.1399994-9.0999985-6.7200012-20.1500015-10.3999977-31.5499954-10.3999977-29.2900009,0-53.1100006,23.8300018-53.1100006,53.1100006s23.8300018,53.1199951,53.1100006,53.1199951c11.3799973,0,22.4400024-3.6699982,31.5299988-10.3800049,6.7399979,5.6199951,14.7599945,9.5899963,23.5700073,11.5399933.8600006.1900024,1.7200012.3500061,2.5800018.5-14.9700012,15.8399963-35.5299988,24.7599945-57.6800003,24.7599945l-.0100098-.0099945v.0000153ZM108.8600006,118.5200195c1.4499969,2.2699966,3.0400009,4.4000015,4.7600021,6.409996-7.3199997,5.0399857-16.0400009,7.7899857-25,7.7899857-24.3099976,0-44.0900002-19.7799988-44.0900002-44.0899963s19.7800026-44.0900002,44.0900002-44.0900002c8.9700012,0,17.6699982,2.7400017,24.9899979,7.7799988-5.9499969,6.8899994-10.1399994,15.1799965-12.1600037,24.3199959-3.1999969,14.5-.5699997,29.3700027,7.4100037,41.8899994,0,0,0-.0099869,0-.0099792ZM201.1100006,98.6600266c-2.6799927,12.1200027-9.9199982,22.4799957-20.3899994,29.1600037-5.1499939,3.2899857-10.7799988,5.4799881-16.6100006,6.5600052l-37.9900055-22.4899979-1.3899994,2.0599976,27.5899963,21.0600052c-2.2100067-.1699982-4.4299927-.4900055-6.6399994-.9799957-12.1199951-2.6799927-22.4799957-9.9199982-29.1600037-20.3899994-6.6800003-10.4700012-8.8799973-22.9100037-6.1999969-35.0299988,2.6800003-12.1200027,9.9199982-22.4799995,20.3899994-29.1599998,6.4299927-4.0999985,13.6100006-6.5099983,21-7.1399994l-27.3600006,20.5200005,1.3700027,2.0699997,37.9599991-22.0499992c.6900024.1199989,1.3699951.25,2.0599976.4000015,12.1199951,2.6800003,22.4799957,9.920002,29.1600037,20.3899994,6.6799927,10.4699974,8.8800049,22.9099998,6.1999969,35.029995,0,0,.0100098-.0100098.0100098-.0100174Z"/>
  <polygon class="st0" points="129.6600037 72.6100235 171.7799988 58.1800232 168.8600006 51.0500221 128.7200012 70.3100204 129.6600037 72.6100235"/>
  <polygon class="st0" points="132 80.9400253 176.1300049 75.010025 174.6499939 67.4500198 131.5200043 78.5000229 132 80.9400253"/>
  <polygon class="st0" points="132.6699982 89.5600204 177.1100006 92.3600235 177.1399994 84.6600266 132.6799927 87.0800247 132.6699982 89.5600204"/>
  <polygon class="st0" points="131.6499939 98.1600266 174.6900024 109.5700226 176.2200012 102.0200195 132.1399994 95.7300262 131.6499939 98.1600266"/>
  <polygon class="st0" points="128.9700012 106.3900223 168.9499969 125.9800262 171.9299927 118.8700256 129.9299927 104.1000214 128.9700012 106.3900223"/>
</svg>
