<svg version="1.1" id="Layer_1" xmlns="http://www.w3.org/2000/svg" xmlns:xlink="http://www.w3.org/1999/xlink" x="0px" y="0px"
	 width="3379" height="739" viewBox="0 0 3379 739" enable-background="new 0 0 3379 739" xml:space="preserve">
<path fill="#FFFFFF" opacity="1.000000" stroke="none"
	d="
M3380.000000,478.000000
	C3380.000000,565.322632 3380.000000,652.645325 3380.000000,740.000000
	C2389.298340,740.000000 1398.596802,740.000000 407.640869,739.660400
	C414.180023,738.221924 420.951691,736.958069 427.771179,736.055115
	C448.664764,733.288696 469.003540,728.089600 488.921448,721.433044
	C510.314392,714.283569 531.166260,705.631226 550.565063,694.011780
	C563.937744,686.001892 577.175049,677.654846 589.772095,668.494873
	C600.678101,660.564575 610.967163,651.674805 620.849609,642.479004
	C630.756348,633.260681 639.706482,623.022522 649.307068,613.463440
	C653.888062,608.902283 656.596924,601.960510 664.891479,601.880798
	C671.612427,601.816162 678.343323,600.838196 685.034607,599.988464
	C708.553345,597.001709 730.823975,589.710938 752.029907,579.360779
	C766.974243,572.066711 780.821594,562.955872 794.045288,552.730652
	C809.878296,540.487854 823.649109,526.329468 835.633423,510.503235
	C847.880432,494.329987 857.589539,476.628601 865.179932,457.707367
	C874.881897,433.522308 880.244934,408.409485 881.858032,382.552795
	C882.867859,366.366180 881.712708,350.173248 879.094666,334.077881
	C875.591431,312.540741 869.389587,291.937256 860.108459,272.173645
	C850.303345,251.294174 837.878540,232.158432 822.462891,215.073883
	C806.654541,197.554108 788.544495,182.721832 768.178406,170.675735
	C745.604248,157.323639 721.403137,148.146759 695.741577,143.161850
	C684.157410,140.911545 672.242310,140.382233 660.496155,138.921387
	C659.257751,138.767380 657.877258,137.829361 657.020752,136.853180
	C652.561096,131.770386 648.619690,126.180588 643.814514,121.463432
	C631.500671,109.375076 619.108215,97.337662 606.230347,85.859734
	C585.974609,67.805923 563.030457,53.591766 539.058105,41.072186
	C517.282227,29.699678 494.463501,20.647505 470.699890,14.574426
	C453.108246,10.078670 435.042267,7.436373 417.182953,3.992352
	C411.796600,2.953641 406.394745,1.995205 401.000000,1.000000
	C1393.885498,1.000000 2386.770996,1.000000 3380.000000,1.000000
	C3380.000000,150.368073 3380.000000,299.736389 3379.601562,449.399475
	C3378.802490,446.456604 3378.566895,443.188507 3377.974854,439.986298
	C3373.805664,417.435455 3362.515137,399.414825 3343.841797,385.950653
	C3329.713623,375.763733 3314.154785,368.436127 3297.438477,364.190857
	C3280.890869,359.988403 3263.996094,357.075378 3247.168945,354.071289
	C3230.414307,351.080200 3213.602783,348.303833 3196.727295,346.123322
	C3179.534424,343.901764 3162.719727,340.554932 3146.592285,334.024994
	C3119.975342,323.247894 3108.737061,301.635284 3114.322510,275.442810
	C3118.280029,256.883636 3131.046143,245.161102 3147.375977,237.396255
	C3167.217773,227.961380 3188.816406,225.691574 3210.403809,225.231979
	C3223.123047,224.961166 3235.930420,226.653183 3248.628418,228.082001
	C3265.512939,229.981903 3281.005859,236.285828 3295.354004,245.144592
	C3307.290039,252.514038 3317.888184,261.689819 3323.764893,274.727997
	C3326.999756,281.905121 3328.364746,289.924988 3330.602539,297.667542
	C3344.739258,297.667542 3359.811768,297.667542 3375.471191,297.667542
	C3374.959229,291.905060 3374.719482,286.485474 3373.959961,281.139740
	C3371.115479,261.116882 3361.812988,244.167526 3348.076904,229.716354
	C3334.723145,215.667526 3318.477539,205.687653 3300.640625,198.220871
	C3277.196777,188.406631 3252.626465,183.852386 3227.371582,183.116562
	C3215.473389,182.769897 3203.519775,183.355713 3191.627686,184.100937
	C3182.536621,184.670639 3173.392822,185.597275 3164.466553,187.351562
	C3147.400635,190.705551 3131.015137,196.176147 3115.842041,204.979767
	C3100.309814,213.992050 3087.599854,225.875137 3079.104492,241.716415
	C3067.667236,263.044006 3065.584229,285.722290 3069.878418,309.419495
	C3073.409668,328.907318 3082.906982,344.783173 3097.849121,357.131012
	C3117.776855,373.598999 3141.572510,382.028900 3166.601074,386.885071
	C3181.873779,389.848328 3197.376953,391.610870 3212.756836,394.037750
	C3229.082275,396.613861 3245.364990,399.463318 3261.702148,401.961426
	C3277.389160,404.360168 3292.344238,408.556366 3306.654785,415.799622
	C3326.264893,425.725403 3336.798340,447.639832 3333.160889,469.374817
	C3329.624268,490.504395 3315.703369,502.814911 3298.276855,511.633026
	C3286.573730,517.554932 3273.704102,520.718262 3260.344727,522.243042
	C3243.157227,524.204712 3226.149414,525.504456 3208.799561,524.236816
	C3195.255859,523.247253 3181.985840,521.450012 3168.922363,517.973083
	C3153.205566,513.789795 3138.496582,507.275757 3126.168701,496.534363
	C3112.888428,484.963562 3105.196045,470.316010 3104.833252,452.208130
	C3089.862549,452.208130 3075.118408,452.208130 3060.197266,452.208130
	C3059.205566,463.460815 3061.372803,474.036926 3064.836914,484.439209
	C3073.510010,510.483154 3091.542236,528.502014 3114.573242,542.106873
	C3142.531738,558.622314 3173.464844,564.864136 3205.311035,566.791748
	C3219.987793,567.680115 3234.853027,566.992249 3249.534912,565.807373
	C3263.081055,564.714294 3276.710693,562.911926 3289.923584,559.806152
	C3315.586182,553.773865 3338.814209,542.884094 3356.916992,522.712036
	C3368.022217,510.337402 3374.821289,496.096008 3378.067383,479.947693
	C3378.217773,479.199188 3379.333740,478.644806 3380.000000,478.000000
M1783.970215,476.352509
	C1772.343994,489.143585 1759.081177,499.824280 1743.817871,508.044525
	C1723.314819,519.086792 1701.031250,523.738525 1678.192139,524.699585
	C1663.848511,525.303162 1649.030029,524.626587 1635.043091,521.633789
	C1605.303711,515.270386 1579.356812,501.276306 1558.102539,478.810852
	C1541.132202,460.873352 1529.730835,440.114349 1523.291504,416.508423
	C1521.498047,409.933777 1520.746216,403.074982 1519.453125,396.000000
	C1522.466187,396.000000 1524.286621,396.000000 1526.107056,396.000000
	C1593.105957,396.000000 1660.104980,396.000000 1727.103882,396.000000
	C1768.603271,396.000000 1810.102539,395.978455 1851.601807,396.045990
	C1854.529541,396.050751 1856.760132,395.793976 1857.011963,392.227722
	C1857.277344,388.471710 1858.025024,384.716003 1857.938110,380.974701
	C1857.550781,364.301086 1858.875854,347.628296 1856.181030,330.949646
	C1853.773926,316.051300 1849.897095,301.669006 1843.891113,287.963348
	C1833.219971,263.611969 1817.863403,242.649033 1797.207886,225.619354
	C1780.978027,212.238464 1762.895996,202.290878 1743.270264,195.003372
	C1724.802002,188.145599 1705.555176,184.188751 1686.030151,183.293121
	C1669.762085,182.546906 1653.239136,183.265808 1637.082031,185.323105
	C1620.069214,187.489349 1603.575317,192.503784 1587.702637,199.566727
	C1561.976807,211.014069 1539.334595,226.356598 1520.676147,247.667343
	C1507.220825,263.035309 1496.581177,279.979095 1488.682983,298.742737
	C1479.201782,321.266968 1474.952759,344.898926 1474.092163,369.172974
	C1473.830078,376.570465 1474.304932,384.045258 1475.086670,391.416321
	C1476.199585,401.909912 1477.202759,412.499268 1479.517334,422.762512
	C1483.485962,440.358459 1490.155396,457.012115 1499.212036,472.720306
	C1511.882812,494.697083 1528.278564,513.412781 1548.422974,528.658325
	C1561.918457,538.871826 1576.900391,546.703186 1592.570435,553.236755
	C1611.870728,561.283936 1632.057983,565.688538 1652.756104,566.794067
	C1670.838745,567.759827 1688.987305,567.301636 1707.008545,564.112549
	C1724.695679,560.982544 1741.777466,556.165894 1757.990356,548.481567
	C1783.403931,536.436462 1805.102417,519.741638 1822.338745,497.285645
	C1832.017456,484.675629 1839.417114,470.884918 1846.325439,456.002045
	C1830.496094,456.002045 1815.222656,455.964783 1799.950439,456.088623
	C1798.965942,456.096588 1797.735474,457.153595 1797.053711,458.052002
	C1792.645874,463.861206 1788.358643,469.761932 1783.970215,476.352509
M2588.563232,488.950256
	C2582.326660,497.070801 2575.022705,503.937744 2566.034668,509.027740
	C2544.776855,521.065918 2521.268311,523.946167 2497.620850,524.717407
	C2482.256348,525.218567 2466.752686,523.484131 2451.402344,521.880188
	C2432.629639,519.918701 2414.977051,513.878235 2398.908691,503.913086
	C2387.220215,496.664215 2377.725586,487.015503 2372.657227,473.993256
	C2369.955811,467.052338 2368.594727,459.589783 2366.619873,452.329987
	C2352.595703,452.329987 2337.856934,452.329987 2323.099609,452.329987
	C2322.244629,467.244324 2325.435547,481.006927 2331.610840,494.136658
	C2341.453613,515.063171 2357.345703,530.446899 2376.985596,541.908447
	C2405.998047,558.839600 2437.981689,565.528015 2471.138916,566.852417
	C2485.020508,567.406860 2499.006104,566.865845 2512.871826,565.839539
	C2524.992188,564.942444 2537.200195,563.505676 2549.034668,560.828003
	C2575.094971,554.931458 2599.011475,544.673889 2617.949463,524.692993
	C2634.126221,507.625275 2641.947021,487.313507 2642.844238,464.242401
	C2643.153809,456.286102 2642.188232,448.174072 2640.890625,440.283508
	C2638.186279,423.838135 2631.257568,409.250275 2619.616455,397.155029
	C2609.371826,386.511047 2597.048828,379.006500 2583.659424,372.814941
	C2568.196045,365.664307 2552.031738,361.088165 2535.410156,358.089844
	C2520.093750,355.326874 2504.632324,353.372772 2489.250244,350.965424
	C2474.841064,348.710388 2460.465576,346.238861 2446.050293,344.026398
	C2430.856201,341.694397 2416.045410,337.914642 2402.443604,330.712860
	C2376.864502,317.169434 2369.733398,290.711700 2380.938721,265.417328
	C2388.326416,248.741470 2402.457520,240.151764 2418.516113,234.059967
	C2435.239746,227.715927 2452.937744,226.008713 2470.569336,225.219162
	C2481.849609,224.714035 2493.241943,226.118744 2504.553467,227.040436
	C2523.331787,228.570511 2540.736816,234.542191 2556.774170,244.359329
	C2576.796875,256.616241 2591.662598,272.423004 2592.345459,297.790497
	C2607.480713,297.790497 2622.554688,297.790497 2637.816895,297.790497
	C2638.896240,284.513733 2635.997803,272.160156 2631.000488,260.229034
	C2620.554199,235.288452 2601.874756,218.025070 2578.666992,205.331818
	C2552.691162,191.124863 2524.397949,184.708771 2495.127686,183.193024
	C2475.883057,182.196457 2456.588623,182.911469 2437.375488,185.856262
	C2416.148438,189.109741 2396.006104,194.881805 2377.399170,205.884689
	C2362.632080,214.616837 2350.828857,226.105896 2342.472412,241.053238
	C2330.125244,263.138885 2328.423340,286.770294 2333.053223,311.107758
	C2336.695557,330.252045 2346.754639,345.851288 2361.694824,358.010284
	C2377.922607,371.216827 2396.896240,379.508118 2417.163086,383.790985
	C2441.838135,389.005402 2466.843750,392.652191 2491.702393,397.001556
	C2510.651855,400.317017 2529.738525,403.029938 2548.489502,407.235321
	C2560.744385,409.983887 2572.316650,415.474823 2581.672852,424.272186
	C2598.709229,440.290833 2602.027588,468.190674 2588.563232,488.950256
M3017.500000,190.000000
	C3010.510498,190.000000 3003.521240,190.000000 2996.537598,190.000000
	C2987.981934,211.758957 2979.526855,233.358292 2970.997070,254.927963
	C2963.043701,275.039429 2954.959961,295.099426 2947.025635,315.218353
	C2936.978027,340.694672 2927.010010,366.202362 2917.032471,391.706268
	C2909.330566,411.393646 2901.701172,431.109375 2893.977051,450.787903
	C2886.897217,468.824554 2879.758057,486.838074 2872.538574,504.819092
	C2872.164795,505.750427 2870.826660,506.845947 2869.881836,506.900818
	C2865.895508,507.132202 2861.883301,507.098053 2857.891113,506.924591
	C2856.926270,506.882660 2855.499023,506.165924 2855.139404,505.371948
	C2852.958984,500.560272 2851.056885,495.623383 2849.005371,490.752136
	C2841.170166,472.147247 2833.352295,453.534973 2825.453125,434.957336
	C2819.368652,420.648712 2813.111572,406.413544 2807.041016,392.099182
	C2799.097412,373.368774 2791.299561,354.576782 2783.368896,335.840881
	C2777.308838,321.524048 2771.088623,307.275024 2765.032715,292.956482
	C2757.169922,274.366089 2749.422852,255.727020 2741.582520,237.127228
	C2735.421143,222.509842 2729.090332,207.962479 2723.092041,193.278931
	C2722.031250,190.681870 2720.862549,189.918015 2718.188965,189.940430
	C2703.357422,190.064789 2688.524170,189.995041 2673.691650,190.013260
	C2672.815918,190.014343 2671.939941,190.202835 2670.917969,190.321030
	C2679.737305,210.780762 2688.321045,230.799164 2696.991211,250.780167
	C2706.180176,271.957306 2715.510010,293.073456 2724.669434,314.263306
	C2734.842285,337.797577 2744.832520,361.410889 2755.015137,384.940857
	C2763.165283,403.773560 2771.571045,422.495850 2779.707031,441.334747
	C2789.552979,464.134521 2799.180908,487.028442 2809.001953,509.839142
	C2818.571045,532.065002 2828.290771,554.225952 2837.829834,576.464539
	C2838.341309,577.656311 2838.174805,579.455078 2837.677002,580.715881
	C2830.440430,599.035889 2823.453857,617.469055 2815.600098,635.523804
	C2812.360596,642.971313 2808.105225,650.406799 2802.680176,656.361450
	C2796.356201,663.303345 2786.955078,664.845154 2777.692139,664.972473
	C2768.527832,665.098511 2759.360352,665.000000 2750.194092,665.000000
	C2737.912354,665.000000 2725.630859,665.000000 2713.223633,665.000000
	C2713.223633,679.178345 2713.223633,692.916260 2713.223633,707.000000
	C2735.071533,707.000000 2756.700439,707.195190 2778.322998,706.909119
	C2787.655762,706.785645 2797.068604,706.275513 2806.281006,704.867859
	C2823.025635,702.309204 2836.218018,693.849243 2846.129639,679.808899
	C2854.130371,668.475586 2858.791016,655.703613 2863.980225,643.108032
	C2872.341797,622.811646 2880.719727,602.521484 2888.950195,582.171692
	C2897.717529,560.494324 2906.246094,538.720215 2915.017822,517.044678
	C2923.913086,495.063263 2933.052979,473.180878 2941.952637,451.201263
	C2954.997314,418.985413 2967.881104,386.704590 2980.912598,354.483459
	C2991.184570,329.085510 3001.638916,303.761322 3011.895996,278.357422
	C3020.770020,256.378265 3029.472900,234.329941 3038.268066,212.318771
	C3041.189209,205.007904 3044.161377,197.717529 3047.279053,190.000000
	C3037.151367,190.000000 3027.825684,190.000000 3017.500000,190.000000
M1919.000000,534.500000
	C1919.000000,542.931519 1919.000000,551.363037 1919.000000,559.710144
	C1934.315186,559.710144 1949.053101,559.710144 1964.000000,559.710144
	C1964.000000,557.612732 1964.000000,555.799316 1964.000000,553.985901
	C1964.000000,486.996216 1963.934570,420.006409 1964.087524,353.017090
	C1964.105347,345.186798 1965.052856,337.324463 1966.041504,329.536926
	C1969.259766,304.189087 1981.301392,283.097443 1998.674194,264.989410
	C2010.433594,252.732483 2024.584473,243.773621 2040.210815,236.840591
	C2056.443604,229.638550 2073.437988,226.318512 2090.885986,225.122879
	C2103.659668,224.247574 2116.371338,225.898102 2128.825684,229.008728
	C2158.230957,236.353302 2181.902344,251.900726 2199.579834,276.892487
	C2215.381104,299.231598 2221.627686,324.374084 2221.828857,350.948334
	C2222.343018,418.767334 2222.000000,486.592834 2222.000000,554.415710
	C2222.000000,556.188171 2222.000000,557.960632 2222.000000,559.738892
	C2236.590088,559.738892 2250.660889,559.738892 2265.000000,559.738892
	C2265.000000,557.676208 2265.000000,555.871704 2265.000000,554.067261
	C2265.000000,486.744293 2265.089355,419.421112 2264.910400,352.098633
	C2264.881104,341.099213 2263.862305,330.086945 2262.955322,319.109192
	C2261.683350,303.713806 2257.163574,289.074036 2250.921143,275.078766
	C2238.496826,247.225159 2219.769287,224.671402 2193.794189,208.202316
	C2169.186523,192.600235 2142.141846,184.988800 2113.406250,183.161469
	C2102.886719,182.492523 2092.251465,183.709366 2081.666748,183.988052
	C2067.933838,184.349640 2054.706543,187.507538 2041.784790,191.757568
	C2025.535889,197.102005 2010.476074,204.946945 1996.533203,214.929520
	C1986.090698,222.405914 1976.730347,230.955170 1968.884644,241.164597
	C1968.000732,242.314835 1966.196533,242.758041 1964.018433,243.977249
	C1961.881470,225.260040 1959.877075,207.704071 1957.890381,190.303253
	C1944.661133,190.303253 1931.920898,190.303253 1919.000000,190.303253
	C1919.000000,304.904266 1919.000000,419.202118 1919.000000,534.500000
M1201.802124,562.967529
	C1210.541138,563.989136 1219.286011,564.963318 1228.017944,566.042297
	C1245.983643,568.262146 1263.939575,567.476929 1281.675049,564.531311
	C1297.187744,561.954956 1312.238281,557.496582 1326.819702,551.184692
	C1344.838501,543.384827 1361.249146,533.247864 1375.405640,519.825684
	C1383.713379,511.948761 1391.276245,503.138153 1398.261108,494.046143
	C1411.292847,477.083282 1419.914429,457.811890 1426.020142,437.147339
	C1409.867676,437.147339 1394.062500,437.147339 1379.055420,437.147339
	C1375.193604,445.218933 1371.875610,453.050690 1367.813110,460.475006
	C1356.054810,481.962708 1338.621948,497.777283 1317.039673,508.899567
	C1302.529053,516.377563 1287.040894,520.871155 1270.729492,523.213135
	C1256.066406,525.318359 1241.485596,525.694397 1226.970703,523.839600
	C1209.037964,521.547974 1191.936157,516.206238 1175.861328,507.513824
	C1156.571289,497.082794 1140.234741,483.279083 1127.382568,465.674225
	C1108.404541,439.678070 1099.838257,410.020477 1099.130127,378.086334
	C1098.938354,369.438904 1100.261963,360.750214 1101.013184,352.091156
	C1102.365356,336.505676 1106.940918,321.784546 1113.724731,307.790771
	C1123.652832,287.310425 1137.359009,269.907990 1155.500854,255.847153
	C1181.226318,235.908737 1210.490967,226.415848 1242.602783,225.089737
	C1257.676147,224.467255 1272.628662,226.363556 1287.285400,230.025238
	C1310.928711,235.932083 1331.929077,246.788223 1349.429443,263.954376
	C1361.752441,276.042145 1370.913940,290.217957 1377.118408,306.337311
	C1377.539551,307.431335 1379.002808,308.875458 1379.994995,308.885986
	C1395.263184,309.047974 1410.533569,308.998962 1425.937378,308.998962
	C1418.106689,282.900421 1405.965210,261.859741 1389.557251,243.225784
	C1375.215332,226.938065 1358.207642,213.804260 1338.739258,203.952576
	C1314.040771,191.454163 1287.716919,184.932220 1260.273682,183.119202
	C1242.814575,181.965775 1225.256592,182.856903 1208.070435,186.167435
	C1187.520386,190.125977 1167.871216,196.969498 1149.400513,207.110947
	C1124.415405,220.829224 1103.603882,239.266937 1087.283936,262.474976
	C1064.389038,295.033112 1053.902710,331.778198 1053.128174,371.326538
	C1052.935913,381.144592 1054.223755,391.002441 1055.022339,400.826477
	C1056.231934,415.704956 1059.824341,430.009064 1064.904541,444.066559
	C1077.033936,477.630157 1096.978149,505.622406 1125.090210,527.364807
	C1147.597046,544.772095 1173.184570,556.299927 1201.802124,562.967529
z"/>
<path fill="#FFAD5B" opacity="1.000000" stroke="none"
	d="
M400.531342,1.000000
	C406.394745,1.995205 411.796600,2.953641 417.182953,3.992352
	C435.042267,7.436373 453.108246,10.078670 470.699890,14.574426
	C494.463501,20.647505 517.282227,29.699678 539.058105,41.072186
	C563.030457,53.591766 585.974609,67.805923 606.230347,85.859734
	C619.108215,97.337662 631.500671,109.375076 643.814514,121.463432
	C648.619690,126.180588 652.561096,131.770386 657.020752,136.853180
	C657.877258,137.829361 659.257751,138.767380 660.496155,138.921387
	C672.242310,140.382233 684.157410,140.911545 695.741577,143.161850
	C721.403137,148.146759 745.604248,157.323639 768.178406,170.675735
	C788.544495,182.721832 806.654541,197.554108 822.462891,215.073883
	C837.878540,232.158432 850.303345,251.294174 860.108459,272.173645
	C869.389587,291.937256 875.591431,312.540741 879.094666,334.077881
	C881.712708,350.173248 882.867859,366.366180 881.858032,382.552795
	C880.244934,408.409485 874.881897,433.522308 865.179932,457.707367
	C857.589539,476.628601 847.880432,494.329987 835.633423,510.503235
	C823.649109,526.329468 809.878296,540.487854 794.045288,552.730652
	C780.821594,562.955872 766.974243,572.066711 752.029907,579.360779
	C730.823975,589.710938 708.553345,597.001709 685.034607,599.988464
	C678.343323,600.838196 671.612427,601.816162 664.891479,601.880798
	C656.596924,601.960510 653.888062,608.902283 649.307068,613.463440
	C639.706482,623.022522 630.756348,633.260681 620.849609,642.479004
	C610.967163,651.674805 600.678101,660.564575 589.772095,668.494873
	C577.175049,677.654846 563.937744,686.001892 550.565063,694.011780
	C531.166260,705.631226 510.314392,714.283569 488.921448,721.433044
	C469.003540,728.089600 448.664764,733.288696 427.771179,736.055115
	C420.951691,736.958069 414.180023,738.221924 407.193237,739.660400
	C382.312439,740.000000 357.624878,740.000000 332.313171,739.634766
	C325.458160,738.185730 319.183411,737.306213 313.004852,735.978882
	C296.202942,732.369446 279.186005,729.448486 262.721069,724.652222
	C234.055603,716.302002 206.987335,703.955566 181.279343,688.693298
	C157.404236,674.519287 135.518158,657.707275 115.328606,638.710999
	C108.453415,632.242188 101.903435,625.355713 95.798897,618.156372
	C86.232338,606.874207 76.715981,595.496521 67.990166,583.565613
	C50.327564,559.415283 36.554928,533.047302 25.671745,505.203827
	C15.914591,480.241150 8.991635,454.509918 4.730558,428.006683
	C4.101845,424.096161 6.370775,418.643341 1.000000,416.000000
	C1.000000,413.958344 1.000000,411.916656 1.343743,409.230408
	C1.458324,406.057190 1.229162,403.528595 1.000000,401.000000
	C1.000000,381.312439 1.000000,361.624878 1.350935,341.248779
	C2.097567,337.387726 2.608311,334.221863 2.792576,331.037079
	C2.829742,330.394745 1.629662,329.680878 1.000003,329.000000
	C1.000000,328.555542 1.000000,328.111115 1.349491,327.193787
	C2.792953,322.502625 3.974216,318.304718 4.965911,314.062500
	C9.475324,294.772583 12.984215,275.187347 18.641655,256.242462
	C26.040117,231.467499 36.935059,208.034485 50.041981,185.649628
	C67.200409,156.345322 87.832092,129.896606 112.159065,106.140862
	C131.377487,87.373718 151.960052,70.381477 175.040237,56.815674
	C192.451111,46.582119 210.690933,37.656612 228.994980,29.072569
	C248.960068,19.709549 270.211334,13.767900 291.747833,9.284117
	C305.380981,6.445770 319.318085,5.076316 333.107544,2.973652
	C336.428131,2.467314 339.703705,1.665781 343.000000,1.000001
	C362.020905,1.000000 381.041779,1.000000 400.531342,1.000000
M246.968246,677.481262
	C262.432312,682.383911 277.803253,687.608459 293.381439,692.116699
	C319.218506,699.593933 345.891785,700.990173 372.569733,701.928833
	C377.328247,702.096191 382.129395,701.436646 386.893707,700.980347
	C400.661560,699.661743 414.690918,699.497498 428.119446,696.583923
	C447.930603,692.285522 467.541870,686.706055 486.814240,680.380310
	C508.139862,673.380615 528.209534,663.180725 546.741333,650.533142
	C562.200012,639.982849 576.946594,628.346863 591.599731,616.678223
	C597.867249,611.687195 603.096680,605.392517 609.067810,599.420105
	C590.419739,595.474304 572.965271,590.600281 556.162781,583.217163
	C537.639038,575.077576 520.576172,564.699036 504.828217,552.133240
	C502.281158,550.100891 500.946594,550.497314 498.523682,551.877258
	C484.822113,559.680847 471.475861,568.344360 457.121368,574.716492
	C426.972687,588.100037 395.178619,593.633057 362.046143,592.166626
	C344.329102,591.382446 327.091064,588.855469 310.029907,584.151428
	C274.179199,574.266968 243.109955,556.016724 216.282928,530.565491
	C208.285858,522.978516 201.295670,514.267578 194.307190,505.694183
	C182.368011,491.047302 173.382172,474.570251 166.001633,457.243164
	C157.325424,436.874268 151.014542,415.764008 150.104324,393.545197
	C149.393402,376.191742 148.865585,358.681244 150.386337,341.428253
	C151.893890,324.324768 156.695007,307.649536 162.944717,291.482422
	C172.850021,265.858734 186.754456,242.682449 205.213379,222.406830
	C225.876373,199.710266 250.067734,181.747208 278.111176,168.854523
	C303.398071,157.229126 329.914825,150.962509 357.480408,149.113098
	C376.683411,147.824722 395.934143,149.155792 414.729065,153.209320
	C444.896179,159.715515 473.126221,171.117523 498.150757,189.606812
	C500.529755,191.364532 502.492432,191.356384 504.867004,189.603683
	C512.002747,184.336807 519.059143,178.927750 526.487671,174.098999
	C546.506165,161.086487 568.242676,151.901962 591.362854,145.995956
	C597.075378,144.536697 602.835815,143.264984 609.626404,141.658081
	C603.480774,136.055359 598.430908,131.011368 592.928223,126.522362
	C579.537048,115.598099 566.511536,104.087852 552.275757,94.370979
	C533.796387,81.757614 513.806458,71.691536 492.928009,63.316673
	C458.717438,49.594009 423.168701,42.181351 386.552307,40.180214
	C366.727875,39.096783 346.861938,40.041389 327.063782,42.827095
	C307.661285,45.557133 288.626953,49.584637 270.003906,55.536922
	C247.384079,62.766655 225.815552,72.368935 205.224335,84.277313
	C182.433517,97.457764 161.364380,112.946327 142.508469,131.229797
	C131.955215,141.462692 122.348198,152.711288 112.736031,163.865219
	C99.590759,179.118973 88.701485,196.013000 79.185074,213.698441
	C67.940918,234.594742 58.921295,256.463104 52.288811,279.310669
	C43.934799,308.088531 39.864479,337.539886 39.222599,367.366974
	C38.918472,381.499207 40.847073,395.693726 42.010620,409.839783
	C43.632179,429.554260 48.225487,448.684052 54.021568,467.537689
	C60.954025,490.087830 70.037140,511.754456 81.723900,532.250977
	C93.073990,552.156860 105.712807,571.238586 121.540276,587.917114
	C132.953293,599.943665 144.179123,612.341125 156.877289,622.903442
	C171.104111,634.737244 186.353699,645.581970 202.169662,655.192749
	C216.151474,663.688904 231.523087,669.897949 246.968246,677.481262
M792.525085,500.979126
	C801.085205,489.136322 810.862976,477.977325 817.971558,465.319366
	C837.396606,430.730072 845.873596,393.469238 842.102295,353.624939
	C840.795105,339.813873 838.377625,326.314514 834.085632,313.158386
	C821.587952,274.849243 799.673340,243.192154 767.881042,218.209702
	C745.326233,200.486099 719.853210,189.318344 692.350830,182.202637
	C686.768860,180.758392 681.778015,180.924240 676.512390,184.540176
	C668.404846,190.107635 659.546692,194.583954 650.994873,199.502121
	C633.031860,209.832611 615.012329,220.065811 597.105530,230.492752
	C574.088013,243.895630 551.139221,257.417053 528.206787,270.965179
	C523.489014,273.752441 522.525879,269.561768 520.779480,267.147461
	C519.278015,265.071747 517.494202,262.895050 521.358521,260.723175
	C524.908875,258.727722 527.912903,255.772995 531.208008,253.308334
	C557.264160,233.818893 583.345337,214.362930 609.388062,194.855576
	C616.093140,189.833130 622.688721,184.664536 630.051758,179.012558
	C544.711060,186.162613 448.845825,262.691193 457.369110,386.303864
	C464.324615,487.178955 548.387451,557.298889 632.878845,562.756226
	C594.854187,533.734558 557.320679,505.087738 519.619263,476.312775
	C522.146484,472.805847 524.310608,469.802765 526.461426,466.818054
	C549.456970,480.456818 571.919739,493.783325 594.386230,507.103699
	C621.679810,523.286011 648.937805,539.529175 676.314087,555.570496
	C680.374390,557.949707 684.168152,561.851196 689.777588,559.947388
	C703.275330,555.366272 717.179321,551.740173 730.221375,546.111267
	C753.991150,535.852356 774.288025,520.336426 792.525085,500.979126
M424.483734,315.022797
	C433.174072,279.479675 449.393738,247.753983 473.080322,219.869019
	C406.644745,172.069183 296.624054,172.422714 228.470032,255.342133
	C194.859375,296.234406 181.437180,343.850189 189.101974,396.556976
	C196.060638,444.408112 218.794632,483.657532 256.499176,513.929077
	C325.616486,569.420715 417.998444,562.640808 472.773712,521.325012
	C470.895844,519.018738 468.946625,516.776062 467.162048,514.409241
	C453.047852,495.689606 441.165649,475.718811 432.890015,453.686951
	C424.159607,430.444427 418.834137,406.536835 417.975250,381.660522
	C417.207520,359.425964 419.077332,337.463165 424.483734,315.022797
z"/>
<path fill="#000000" opacity="1.000000" stroke="none"
	d="
M3380.000000,477.750000
	C3379.333740,478.644806 3378.217773,479.199188 3378.067383,479.947693
	C3374.821289,496.096008 3368.022217,510.337402 3356.916992,522.712036
	C3338.814209,542.884094 3315.586182,553.773865 3289.923584,559.806152
	C3276.710693,562.911926 3263.081055,564.714294 3249.534912,565.807373
	C3234.853027,566.992249 3219.987793,567.680115 3205.311035,566.791748
	C3173.464844,564.864136 3142.531738,558.622314 3114.573242,542.106873
	C3091.542236,528.502014 3073.510010,510.483154 3064.836914,484.439209
	C3061.372803,474.036926 3059.205566,463.460815 3060.197266,452.208130
	C3075.118408,452.208130 3089.862549,452.208130 3104.833252,452.208130
	C3105.196045,470.316010 3112.888428,484.963562 3126.168701,496.534363
	C3138.496582,507.275757 3153.205566,513.789795 3168.922363,517.973083
	C3181.985840,521.450012 3195.255859,523.247253 3208.799561,524.236816
	C3226.149414,525.504456 3243.157227,524.204712 3260.344727,522.243042
	C3273.704102,520.718262 3286.573730,517.554932 3298.276855,511.633026
	C3315.703369,502.814911 3329.624268,490.504395 3333.160889,469.374817
	C3336.798340,447.639832 3326.264893,425.725403 3306.654785,415.799622
	C3292.344238,408.556366 3277.389160,404.360168 3261.702148,401.961426
	C3245.364990,399.463318 3229.082275,396.613861 3212.756836,394.037750
	C3197.376953,391.610870 3181.873779,389.848328 3166.601074,386.885071
	C3141.572510,382.028900 3117.776855,373.598999 3097.849121,357.131012
	C3082.906982,344.783173 3073.409668,328.907318 3069.878418,309.419495
	C3065.584229,285.722290 3067.667236,263.044006 3079.104492,241.716415
	C3087.599854,225.875137 3100.309814,213.992050 3115.842041,204.979767
	C3131.015137,196.176147 3147.400635,190.705551 3164.466553,187.351562
	C3173.392822,185.597275 3182.536621,184.670639 3191.627686,184.100937
	C3203.519775,183.355713 3215.473389,182.769897 3227.371582,183.116562
	C3252.626465,183.852386 3277.196777,188.406631 3300.640625,198.220871
	C3318.477539,205.687653 3334.723145,215.667526 3348.076904,229.716354
	C3361.812988,244.167526 3371.115479,261.116882 3373.959961,281.139740
	C3374.719482,286.485474 3374.959229,291.905060 3375.471191,297.667542
	C3359.811768,297.667542 3344.739258,297.667542 3330.602539,297.667542
	C3328.364746,289.924988 3326.999756,281.905121 3323.764893,274.727997
	C3317.888184,261.689819 3307.290039,252.514038 3295.354004,245.144592
	C3281.005859,236.285828 3265.512939,229.981903 3248.628418,228.082001
	C3235.930420,226.653183 3223.123047,224.961166 3210.403809,225.231979
	C3188.816406,225.691574 3167.217773,227.961380 3147.375977,237.396255
	C3131.046143,245.161102 3118.280029,256.883636 3114.322510,275.442810
	C3108.737061,301.635284 3119.975342,323.247894 3146.592285,334.024994
	C3162.719727,340.554932 3179.534424,343.901764 3196.727295,346.123322
	C3213.602783,348.303833 3230.414307,351.080200 3247.168945,354.071289
	C3263.996094,357.075378 3280.890869,359.988403 3297.438477,364.190857
	C3314.154785,368.436127 3329.713623,375.763733 3343.841797,385.950653
	C3362.515137,399.414825 3373.805664,417.435455 3377.974854,439.986298
	C3378.566895,443.188507 3378.802490,446.456604 3379.601562,449.847107
	C3380.000000,457.020966 3380.000000,464.041901 3379.632812,471.645203
	C3379.510254,473.818359 3379.755127,475.409180 3380.000000,477.000000
	C3380.000000,477.000000 3380.000000,477.500000 3380.000000,477.750000
z"/>
<path fill="#FFFFFF" opacity="1.000000" stroke="none"
	d="
M342.531342,1.000001
	C339.703705,1.665781 336.428131,2.467314 333.107544,2.973652
	C319.318085,5.076316 305.380981,6.445770 291.747833,9.284117
	C270.211334,13.767900 248.960068,19.709549 228.994980,29.072569
	C210.690933,37.656612 192.451111,46.582119 175.040237,56.815674
	C151.960052,70.381477 131.377487,87.373718 112.159065,106.140862
	C87.832092,129.896606 67.200409,156.345322 50.041981,185.649628
	C36.935059,208.034485 26.040117,231.467499 18.641655,256.242462
	C12.984215,275.187347 9.475324,294.772583 4.965911,314.062500
	C3.974216,318.304718 2.792953,322.502625 1.349491,326.860474
	C1.000000,218.404510 1.000000,109.809029 1.000000,1.000000
	C114.687469,1.000000 228.375076,1.000000 342.531342,1.000001
z"/>
<path fill="#FFFFFF" opacity="1.000000" stroke="none"
	d="
M1.000000,416.468658
	C6.370775,418.643341 4.101845,424.096161 4.730558,428.006683
	C8.991635,454.509918 15.914591,480.241150 25.671745,505.203827
	C36.554928,533.047302 50.327564,559.415283 67.990166,583.565613
	C76.715981,595.496521 86.232338,606.874207 95.798897,618.156372
	C101.903435,625.355713 108.453415,632.242188 115.328606,638.710999
	C135.518158,657.707275 157.404236,674.519287 181.279343,688.693298
	C206.987335,703.955566 234.055603,716.302002 262.721069,724.652222
	C279.186005,729.448486 296.202942,732.369446 313.004852,735.978882
	C319.183411,737.306213 325.458160,738.185730 331.844513,739.634766
	C221.740372,740.000000 111.480751,740.000000 1.000000,740.000000
	C1.000000,632.312561 1.000000,524.624939 1.000000,416.468658
z"/>
<path fill="#FFFFFF" opacity="1.000000" stroke="none"
	d="
M1.000003,329.460632
	C1.629662,329.680878 2.829742,330.394745 2.792576,331.037079
	C2.608311,334.221863 2.097567,337.387726 1.350935,340.780151
	C1.000000,337.307098 1.000000,333.614166 1.000003,329.460632
z"/>
<path fill="#FFFFFF" opacity="1.000000" stroke="none"
	d="
M1.000000,401.444153
	C1.229162,403.528595 1.458324,406.057190 1.343743,408.792908
	C1.000000,406.629425 1.000000,404.258881 1.000000,401.444153
z"/>
<path fill="#FFFFFF" opacity="1.000000" stroke="none"
	d="
M3380.000000,476.583344
	C3379.755127,475.409180 3379.510254,473.818359 3379.632812,472.113770
	C3380.000000,473.388885 3380.000000,474.777802 3380.000000,476.583344
z"/>
<path fill="#000000" opacity="1.000000" stroke="none"
	d="
M1784.000977,475.992554
	C1788.358643,469.761932 1792.645874,463.861206 1797.053711,458.052002
	C1797.735474,457.153595 1798.965942,456.096588 1799.950439,456.088623
	C1815.222656,455.964783 1830.496094,456.002045 1846.325439,456.002045
	C1839.417114,470.884918 1832.017456,484.675629 1822.338745,497.285645
	C1805.102417,519.741638 1783.403931,536.436462 1757.990356,548.481567
	C1741.777466,556.165894 1724.695679,560.982544 1707.008545,564.112549
	C1688.987305,567.301636 1670.838745,567.759827 1652.756104,566.794067
	C1632.057983,565.688538 1611.870728,561.283936 1592.570435,553.236755
	C1576.900391,546.703186 1561.918457,538.871826 1548.422974,528.658325
	C1528.278564,513.412781 1511.882812,494.697083 1499.212036,472.720306
	C1490.155396,457.012115 1483.485962,440.358459 1479.517334,422.762512
	C1477.202759,412.499268 1476.199585,401.909912 1475.086670,391.416321
	C1474.304932,384.045258 1473.830078,376.570465 1474.092163,369.172974
	C1474.952759,344.898926 1479.201782,321.266968 1488.682983,298.742737
	C1496.581177,279.979095 1507.220825,263.035309 1520.676147,247.667343
	C1539.334595,226.356598 1561.976807,211.014069 1587.702637,199.566727
	C1603.575317,192.503784 1620.069214,187.489349 1637.082031,185.323105
	C1653.239136,183.265808 1669.762085,182.546906 1686.030151,183.293121
	C1705.555176,184.188751 1724.802002,188.145599 1743.270264,195.003372
	C1762.895996,202.290878 1780.978027,212.238464 1797.207886,225.619354
	C1817.863403,242.649033 1833.219971,263.611969 1843.891113,287.963348
	C1849.897095,301.669006 1853.773926,316.051300 1856.181030,330.949646
	C1858.875854,347.628296 1857.550781,364.301086 1857.938110,380.974701
	C1858.025024,384.716003 1857.277344,388.471710 1857.011963,392.227722
	C1856.760132,395.793976 1854.529541,396.050751 1851.601807,396.045990
	C1810.102539,395.978455 1768.603271,396.000000 1727.103882,396.000000
	C1660.104980,396.000000 1593.105957,396.000000 1526.107056,396.000000
	C1524.286621,396.000000 1522.466187,396.000000 1519.453125,396.000000
	C1520.746216,403.074982 1521.498047,409.933777 1523.291504,416.508423
	C1529.730835,440.114349 1541.132202,460.873352 1558.102539,478.810852
	C1579.356812,501.276306 1605.303711,515.270386 1635.043091,521.633789
	C1649.030029,524.626587 1663.848511,525.303162 1678.192139,524.699585
	C1701.031250,523.738525 1723.314819,519.086792 1743.817871,508.044525
	C1759.081177,499.824280 1772.343994,489.143585 1784.000977,475.992554
M1544.500000,353.000000
	C1633.896851,353.000000 1723.293701,353.000000 1813.721436,353.000000
	C1812.420166,344.592865 1811.524170,336.710419 1809.939331,328.969025
	C1805.679932,308.163879 1796.026001,289.849274 1782.251221,273.929688
	C1768.233765,257.729492 1751.215576,245.337494 1731.315674,236.982285
	C1713.805420,229.630417 1695.496704,225.964813 1676.678589,225.108948
	C1660.948608,224.393555 1645.353271,226.230927 1630.013306,229.989059
	C1604.277100,236.294159 1581.444946,248.020615 1562.179810,266.344055
	C1542.936157,284.647064 1530.518555,307.057098 1523.336914,332.423523
	C1521.479248,338.985443 1520.732422,345.861877 1519.399536,353.000000
	C1528.215332,353.000000 1535.857666,353.000000 1544.500000,353.000000
z"/>
<path fill="#000000" opacity="1.000000" stroke="none"
	d="
M2588.767822,488.635193
	C2602.027588,468.190674 2598.709229,440.290833 2581.672852,424.272186
	C2572.316650,415.474823 2560.744385,409.983887 2548.489502,407.235321
	C2529.738525,403.029938 2510.651855,400.317017 2491.702393,397.001556
	C2466.843750,392.652191 2441.838135,389.005402 2417.163086,383.790985
	C2396.896240,379.508118 2377.922607,371.216827 2361.694824,358.010284
	C2346.754639,345.851288 2336.695557,330.252045 2333.053223,311.107758
	C2328.423340,286.770294 2330.125244,263.138885 2342.472412,241.053238
	C2350.828857,226.105896 2362.632080,214.616837 2377.399170,205.884689
	C2396.006104,194.881805 2416.148438,189.109741 2437.375488,185.856262
	C2456.588623,182.911469 2475.883057,182.196457 2495.127686,183.193024
	C2524.397949,184.708771 2552.691162,191.124863 2578.666992,205.331818
	C2601.874756,218.025070 2620.554199,235.288452 2631.000488,260.229034
	C2635.997803,272.160156 2638.896240,284.513733 2637.816895,297.790497
	C2622.554688,297.790497 2607.480713,297.790497 2592.345459,297.790497
	C2591.662598,272.423004 2576.796875,256.616241 2556.774170,244.359329
	C2540.736816,234.542191 2523.331787,228.570511 2504.553467,227.040436
	C2493.241943,226.118744 2481.849609,224.714035 2470.569336,225.219162
	C2452.937744,226.008713 2435.239746,227.715927 2418.516113,234.059967
	C2402.457520,240.151764 2388.326416,248.741470 2380.938721,265.417328
	C2369.733398,290.711700 2376.864502,317.169434 2402.443604,330.712860
	C2416.045410,337.914642 2430.856201,341.694397 2446.050293,344.026398
	C2460.465576,346.238861 2474.841064,348.710388 2489.250244,350.965424
	C2504.632324,353.372772 2520.093750,355.326874 2535.410156,358.089844
	C2552.031738,361.088165 2568.196045,365.664307 2583.659424,372.814941
	C2597.048828,379.006500 2609.371826,386.511047 2619.616455,397.155029
	C2631.257568,409.250275 2638.186279,423.838135 2640.890625,440.283508
	C2642.188232,448.174072 2643.153809,456.286102 2642.844238,464.242401
	C2641.947021,487.313507 2634.126221,507.625275 2617.949463,524.692993
	C2599.011475,544.673889 2575.094971,554.931458 2549.034668,560.828003
	C2537.200195,563.505676 2524.992188,564.942444 2512.871826,565.839539
	C2499.006104,566.865845 2485.020508,567.406860 2471.138916,566.852417
	C2437.981689,565.528015 2405.998047,558.839600 2376.985596,541.908447
	C2357.345703,530.446899 2341.453613,515.063171 2331.610840,494.136658
	C2325.435547,481.006927 2322.244629,467.244324 2323.099609,452.329987
	C2337.856934,452.329987 2352.595703,452.329987 2366.619873,452.329987
	C2368.594727,459.589783 2369.955811,467.052338 2372.657227,473.993256
	C2377.725586,487.015503 2387.220215,496.664215 2398.908691,503.913086
	C2414.977051,513.878235 2432.629639,519.918701 2451.402344,521.880188
	C2466.752686,523.484131 2482.256348,525.218567 2497.620850,524.717407
	C2521.268311,523.946167 2544.776855,521.065918 2566.034668,509.027740
	C2575.022705,503.937744 2582.326660,497.070801 2588.767822,488.635193
z"/>
<path fill="#000000" opacity="1.000000" stroke="none"
	d="
M3018.000000,190.000000
	C3027.825684,190.000000 3037.151367,190.000000 3047.279053,190.000000
	C3044.161377,197.717529 3041.189209,205.007904 3038.268066,212.318771
	C3029.472900,234.329941 3020.770020,256.378265 3011.895996,278.357422
	C3001.638916,303.761322 2991.184570,329.085510 2980.912598,354.483459
	C2967.881104,386.704590 2954.997314,418.985413 2941.952637,451.201263
	C2933.052979,473.180878 2923.913086,495.063263 2915.017822,517.044678
	C2906.246094,538.720215 2897.717529,560.494324 2888.950195,582.171692
	C2880.719727,602.521484 2872.341797,622.811646 2863.980225,643.108032
	C2858.791016,655.703613 2854.130371,668.475586 2846.129639,679.808899
	C2836.218018,693.849243 2823.025635,702.309204 2806.281006,704.867859
	C2797.068604,706.275513 2787.655762,706.785645 2778.322998,706.909119
	C2756.700439,707.195190 2735.071533,707.000000 2713.223633,707.000000
	C2713.223633,692.916260 2713.223633,679.178345 2713.223633,665.000000
	C2725.630859,665.000000 2737.912354,665.000000 2750.194092,665.000000
	C2759.360352,665.000000 2768.527832,665.098511 2777.692139,664.972473
	C2786.955078,664.845154 2796.356201,663.303345 2802.680176,656.361450
	C2808.105225,650.406799 2812.360596,642.971313 2815.600098,635.523804
	C2823.453857,617.469055 2830.440430,599.035889 2837.677002,580.715881
	C2838.174805,579.455078 2838.341309,577.656311 2837.829834,576.464539
	C2828.290771,554.225952 2818.571045,532.065002 2809.001953,509.839142
	C2799.180908,487.028442 2789.552979,464.134521 2779.707031,441.334747
	C2771.571045,422.495850 2763.165283,403.773560 2755.015137,384.940857
	C2744.832520,361.410889 2734.842285,337.797577 2724.669434,314.263306
	C2715.510010,293.073456 2706.180176,271.957306 2696.991211,250.780167
	C2688.321045,230.799164 2679.737305,210.780762 2670.917969,190.321030
	C2671.939941,190.202835 2672.815918,190.014343 2673.691650,190.013260
	C2688.524170,189.995041 2703.357422,190.064789 2718.188965,189.940430
	C2720.862549,189.918015 2722.031250,190.681870 2723.092041,193.278931
	C2729.090332,207.962479 2735.421143,222.509842 2741.582520,237.127228
	C2749.422852,255.727020 2757.169922,274.366089 2765.032715,292.956482
	C2771.088623,307.275024 2777.308838,321.524048 2783.368896,335.840881
	C2791.299561,354.576782 2799.097412,373.368774 2807.041016,392.099182
	C2813.111572,406.413544 2819.368652,420.648712 2825.453125,434.957336
	C2833.352295,453.534973 2841.170166,472.147247 2849.005371,490.752136
	C2851.056885,495.623383 2852.958984,500.560272 2855.139404,505.371948
	C2855.499023,506.165924 2856.926270,506.882660 2857.891113,506.924591
	C2861.883301,507.098053 2865.895508,507.132202 2869.881836,506.900818
	C2870.826660,506.845947 2872.164795,505.750427 2872.538574,504.819092
	C2879.758057,486.838074 2886.897217,468.824554 2893.977051,450.787903
	C2901.701172,431.109375 2909.330566,411.393646 2917.032471,391.706268
	C2927.010010,366.202362 2936.978027,340.694672 2947.025635,315.218353
	C2954.959961,295.099426 2963.043701,275.039429 2970.997070,254.927963
	C2979.526855,233.358292 2987.981934,211.758957 2996.537598,190.000000
	C3003.521240,190.000000 3010.510498,190.000000 3018.000000,190.000000
z"/>
<path fill="#000000" opacity="1.000000" stroke="none"
	d="
M1919.000000,534.000000
	C1919.000000,419.202118 1919.000000,304.904266 1919.000000,190.303253
	C1931.920898,190.303253 1944.661133,190.303253 1957.890381,190.303253
	C1959.877075,207.704071 1961.881470,225.260040 1964.018433,243.977249
	C1966.196533,242.758041 1968.000732,242.314835 1968.884644,241.164597
	C1976.730347,230.955170 1986.090698,222.405914 1996.533203,214.929520
	C2010.476074,204.946945 2025.535889,197.102005 2041.784790,191.757568
	C2054.706543,187.507538 2067.933838,184.349640 2081.666748,183.988052
	C2092.251465,183.709366 2102.886719,182.492523 2113.406250,183.161469
	C2142.141846,184.988800 2169.186523,192.600235 2193.794189,208.202316
	C2219.769287,224.671402 2238.496826,247.225159 2250.921143,275.078766
	C2257.163574,289.074036 2261.683350,303.713806 2262.955322,319.109192
	C2263.862305,330.086945 2264.881104,341.099213 2264.910400,352.098633
	C2265.089355,419.421112 2265.000000,486.744293 2265.000000,554.067261
	C2265.000000,555.871704 2265.000000,557.676208 2265.000000,559.738892
	C2250.660889,559.738892 2236.590088,559.738892 2222.000000,559.738892
	C2222.000000,557.960632 2222.000000,556.188171 2222.000000,554.415710
	C2222.000000,486.592834 2222.343018,418.767334 2221.828857,350.948334
	C2221.627686,324.374084 2215.381104,299.231598 2199.579834,276.892487
	C2181.902344,251.900726 2158.230957,236.353302 2128.825684,229.008728
	C2116.371338,225.898102 2103.659668,224.247574 2090.885986,225.122879
	C2073.437988,226.318512 2056.443604,229.638550 2040.210815,236.840591
	C2024.584473,243.773621 2010.433594,252.732483 1998.674194,264.989410
	C1981.301392,283.097443 1969.259766,304.189087 1966.041504,329.536926
	C1965.052856,337.324463 1964.105347,345.186798 1964.087524,353.017090
	C1963.934570,420.006409 1964.000000,486.996216 1964.000000,553.985901
	C1964.000000,555.799316 1964.000000,557.612732 1964.000000,559.710144
	C1949.053101,559.710144 1934.315186,559.710144 1919.000000,559.710144
	C1919.000000,551.363037 1919.000000,542.931519 1919.000000,534.000000
z"/>
<path fill="#000000" opacity="1.000000" stroke="none"
	d="
M1201.420654,562.759705
	C1173.184570,556.299927 1147.597046,544.772095 1125.090210,527.364807
	C1096.978149,505.622406 1077.033936,477.630157 1064.904541,444.066559
	C1059.824341,430.009064 1056.231934,415.704956 1055.022339,400.826477
	C1054.223755,391.002441 1052.935913,381.144592 1053.128174,371.326538
	C1053.902710,331.778198 1064.389038,295.033112 1087.283936,262.474976
	C1103.603882,239.266937 1124.415405,220.829224 1149.400513,207.110947
	C1167.871216,196.969498 1187.520386,190.125977 1208.070435,186.167435
	C1225.256592,182.856903 1242.814575,181.965775 1260.273682,183.119202
	C1287.716919,184.932220 1314.040771,191.454163 1338.739258,203.952576
	C1358.207642,213.804260 1375.215332,226.938065 1389.557251,243.225784
	C1405.965210,261.859741 1418.106689,282.900421 1425.937378,308.998962
	C1410.533569,308.998962 1395.263184,309.047974 1379.994995,308.885986
	C1379.002808,308.875458 1377.539551,307.431335 1377.118408,306.337311
	C1370.913940,290.217957 1361.752441,276.042145 1349.429443,263.954376
	C1331.929077,246.788223 1310.928711,235.932083 1287.285400,230.025238
	C1272.628662,226.363556 1257.676147,224.467255 1242.602783,225.089737
	C1210.490967,226.415848 1181.226318,235.908737 1155.500854,255.847153
	C1137.359009,269.907990 1123.652832,287.310425 1113.724731,307.790771
	C1106.940918,321.784546 1102.365356,336.505676 1101.013184,352.091156
	C1100.261963,360.750214 1098.938354,369.438904 1099.130127,378.086334
	C1099.838257,410.020477 1108.404541,439.678070 1127.382568,465.674225
	C1140.234741,483.279083 1156.571289,497.082794 1175.861328,507.513824
	C1191.936157,516.206238 1209.037964,521.547974 1226.970703,523.839600
	C1241.485596,525.694397 1256.066406,525.318359 1270.729492,523.213135
	C1287.040894,520.871155 1302.529053,516.377563 1317.039673,508.899567
	C1338.621948,497.777283 1356.054810,481.962708 1367.813110,460.475006
	C1371.875610,453.050690 1375.193604,445.218933 1379.055420,437.147339
	C1394.062500,437.147339 1409.867676,437.147339 1426.020142,437.147339
	C1419.914429,457.811890 1411.292847,477.083282 1398.261108,494.046143
	C1391.276245,503.138153 1383.713379,511.948761 1375.405640,519.825684
	C1361.249146,533.247864 1344.838501,543.384827 1326.819702,551.184692
	C1312.238281,557.496582 1297.187744,561.954956 1281.675049,564.531311
	C1263.939575,567.476929 1245.983643,568.262146 1228.017944,566.042297
	C1219.286011,564.963318 1210.541138,563.989136 1201.420654,562.759705
z"/>
<path fill="#FFFFFF" opacity="1.000000" stroke="none"
	d="
M246.624664,677.299072
	C231.523087,669.897949 216.151474,663.688904 202.169662,655.192749
	C186.353699,645.581970 171.104111,634.737244 156.877289,622.903442
	C144.179123,612.341125 132.953293,599.943665 121.540276,587.917114
	C105.712807,571.238586 93.073990,552.156860 81.723900,532.250977
	C70.037140,511.754456 60.954025,490.087830 54.021568,467.537689
	C48.225487,448.684052 43.632179,429.554260 42.010620,409.839783
	C40.847073,395.693726 38.918472,381.499207 39.222599,367.366974
	C39.864479,337.539886 43.934799,308.088531 52.288811,279.310669
	C58.921295,256.463104 67.940918,234.594742 79.185074,213.698441
	C88.701485,196.013000 99.590759,179.118973 112.736031,163.865219
	C122.348198,152.711288 131.955215,141.462692 142.508469,131.229797
	C161.364380,112.946327 182.433517,97.457764 205.224335,84.277313
	C225.815552,72.368935 247.384079,62.766655 270.003906,55.536922
	C288.626953,49.584637 307.661285,45.557133 327.063782,42.827095
	C346.861938,40.041389 366.727875,39.096783 386.552307,40.180214
	C423.168701,42.181351 458.717438,49.594009 492.928009,63.316673
	C513.806458,71.691536 533.796387,81.757614 552.275757,94.370979
	C566.511536,104.087852 579.537048,115.598099 592.928223,126.522362
	C598.430908,131.011368 603.480774,136.055359 609.626404,141.658081
	C602.835815,143.264984 597.075378,144.536697 591.362854,145.995956
	C568.242676,151.901962 546.506165,161.086487 526.487671,174.098999
	C519.059143,178.927750 512.002747,184.336807 504.867004,189.603683
	C502.492432,191.356384 500.529755,191.364532 498.150757,189.606812
	C473.126221,171.117523 444.896179,159.715515 414.729065,153.209320
	C395.934143,149.155792 376.683411,147.824722 357.480408,149.113098
	C329.914825,150.962509 303.398071,157.229126 278.111176,168.854523
	C250.067734,181.747208 225.876373,199.710266 205.213379,222.406830
	C186.754456,242.682449 172.850021,265.858734 162.944717,291.482422
	C156.695007,307.649536 151.893890,324.324768 150.386337,341.428253
	C148.865585,358.681244 149.393402,376.191742 150.104324,393.545197
	C151.014542,415.764008 157.325424,436.874268 166.001633,457.243164
	C173.382172,474.570251 182.368011,491.047302 194.307190,505.694183
	C201.295670,514.267578 208.285858,522.978516 216.282928,530.565491
	C243.109955,556.016724 274.179199,574.266968 310.029907,584.151428
	C327.091064,588.855469 344.329102,591.382446 362.046143,592.166626
	C395.178619,593.633057 426.972687,588.100037 457.121368,574.716492
	C471.475861,568.344360 484.822113,559.680847 498.523682,551.877258
	C500.946594,550.497314 502.281158,550.100891 504.828217,552.133240
	C520.576172,564.699036 537.639038,575.077576 556.162781,583.217163
	C572.965271,590.600281 590.419739,595.474304 609.067810,599.420105
	C603.096680,605.392517 597.867249,611.687195 591.599731,616.678223
	C576.946594,628.346863 562.200012,639.982849 546.741333,650.533142
	C528.209534,663.180725 508.139862,673.380615 486.814240,680.380310
	C467.541870,686.706055 447.930603,692.285522 428.119446,696.583923
	C414.690918,699.497498 400.661560,699.661743 386.893707,700.980347
	C382.129395,701.436646 377.328247,702.096191 372.569733,701.928833
	C345.891785,700.990173 319.218506,699.593933 293.381439,692.116699
	C277.803253,687.608459 262.432312,682.383911 246.624664,677.299072
z"/>
<path fill="#FFFFFF" opacity="1.000000" stroke="none"
	d="
M792.270142,501.230225
	C774.288025,520.336426 753.991150,535.852356 730.221375,546.111267
	C717.179321,551.740173 703.275330,555.366272 689.777588,559.947388
	C684.168152,561.851196 680.374390,557.949707 676.314087,555.570496
	C648.937805,539.529175 621.679810,523.286011 594.386230,507.103699
	C571.919739,493.783325 549.456970,480.456818 526.461426,466.818054
	C524.310608,469.802765 522.146484,472.805847 519.619263,476.312775
	C557.320679,505.087738 594.854187,533.734558 632.878845,562.756226
	C548.387451,557.298889 464.324615,487.178955 457.369110,386.303864
	C448.845825,262.691193 544.711060,186.162613 630.051758,179.012558
	C622.688721,184.664536 616.093140,189.833130 609.388062,194.855576
	C583.345337,214.362930 557.264160,233.818893 531.208008,253.308334
	C527.912903,255.772995 524.908875,258.727722 521.358521,260.723175
	C517.494202,262.895050 519.278015,265.071747 520.779480,267.147461
	C522.525879,269.561768 523.489014,273.752441 528.206787,270.965179
	C551.139221,257.417053 574.088013,243.895630 597.105530,230.492752
	C615.012329,220.065811 633.031860,209.832611 650.994873,199.502121
	C659.546692,194.583954 668.404846,190.107635 676.512390,184.540176
	C681.778015,180.924240 686.768860,180.758392 692.350830,182.202637
	C719.853210,189.318344 745.326233,200.486099 767.881042,218.209702
	C799.673340,243.192154 821.587952,274.849243 834.085632,313.158386
	C838.377625,326.314514 840.795105,339.813873 842.102295,353.624939
	C845.873596,393.469238 837.396606,430.730072 817.971558,465.319366
	C810.862976,477.977325 801.085205,489.136322 792.270142,501.230225
M538.152161,445.198944
	C541.533569,446.826569 544.924622,448.434570 548.294800,450.085114
	C564.722900,458.130646 581.155762,466.166718 597.567444,474.245667
	C619.455078,485.020233 641.319702,495.841522 663.203979,506.623016
	C677.193054,513.514771 691.199768,520.370911 705.252625,527.269531
	C709.690491,516.722778 713.880981,506.764008 718.204346,496.489594
	C716.517639,495.877716 715.155334,495.378845 713.789917,494.888855
	C697.274292,488.962219 680.792603,482.938660 664.235229,477.131104
	C626.789795,463.997009 589.318726,450.935608 551.831482,437.921143
	C541.489563,434.330719 541.446655,434.454254 538.152161,445.198944
M636.600464,246.111862
	C632.130432,248.201508 627.647400,250.263840 623.192749,252.385895
	C609.071411,259.112915 594.937256,265.813751 580.852478,272.616730
	C567.051453,279.282623 553.275818,286.003601 539.589111,292.899017
	C538.483582,293.455994 537.322327,295.776550 537.625061,296.884766
	C538.377197,299.638245 539.961243,302.164520 541.177551,304.711670
	C599.990417,284.552826 658.454529,264.513550 717.518799,244.268585
	C713.572205,234.571854 709.852051,225.137283 705.755493,215.869080
	C705.387756,215.036972 702.228149,214.535019 700.964661,215.137344
	C679.697083,225.275787 658.524841,235.614197 636.600464,246.111862
M718.576721,455.978333
	C722.020996,456.830292 725.465271,457.682281 729.364746,458.646881
	C731.529053,447.803711 733.654297,437.156494 735.869141,426.059998
	C674.205383,417.250702 612.859497,408.486786 551.351807,399.699738
	C550.437744,403.764771 549.696716,407.060547 548.832764,410.902863
	C557.422424,413.139893 565.647034,415.240326 573.849121,417.425385
	C603.301697,425.271606 632.747559,433.143097 662.194153,441.011749
	C680.716309,445.961151 699.235291,450.922577 718.576721,455.978333
M705.413635,287.978882
	C679.866882,294.524261 654.329529,301.106567 628.770569,307.604065
	C605.749939,313.456238 582.588501,318.796234 559.718262,325.182465
	C547.209106,328.675446 548.114136,325.048523 550.217041,338.100433
	C550.259766,338.365326 550.636963,338.576324 551.259827,339.241516
	C612.215210,331.054321 673.504089,322.822327 734.832153,314.585083
	C734.894592,313.270111 735.131653,312.245483 734.959290,311.295135
	C733.321899,302.266296 731.701965,293.231445 729.783936,284.260986
	C729.606140,283.429474 727.235046,282.298645 726.175903,282.548981
	C719.485962,284.130188 712.878845,286.062042 705.413635,287.978882
M623.482178,360.000000
	C600.120422,361.274628 576.758667,362.549286 553.370117,363.825409
	C553.370117,367.992615 553.370117,371.378845 553.370117,375.250946
	C565.085327,375.846313 576.458252,376.409332 587.829346,377.008453
	C593.600403,377.312469 599.373230,377.611786 605.136353,378.034576
	C622.722656,379.324615 640.295349,380.816071 657.891113,381.954163
	C671.745605,382.850250 685.632507,383.235260 699.492981,384.052338
	C706.385254,384.458618 713.238464,385.553802 720.131531,385.915863
	C726.291260,386.239441 732.481445,385.983887 739.334534,385.983887
	C739.334534,375.614807 739.334534,364.959076 739.334534,353.625916
	C732.620667,354.090485 726.052185,354.591736 719.477539,354.989655
	C707.941040,355.687805 696.403381,356.373505 684.861450,356.972870
	C664.725708,358.018555 644.586243,358.994720 623.482178,360.000000
z"/>
<path fill="#FFFFFF" opacity="1.000000" stroke="none"
	d="
M424.300659,315.402863
	C419.077332,337.463165 417.207520,359.425964 417.975250,381.660522
	C418.834137,406.536835 424.159607,430.444427 432.890015,453.686951
	C441.165649,475.718811 453.047852,495.689606 467.162048,514.409241
	C468.946625,516.776062 470.895844,519.018738 472.773712,521.325012
	C417.998444,562.640808 325.616486,569.420715 256.499176,513.929077
	C218.794632,483.657532 196.060638,444.408112 189.101974,396.556976
	C181.437180,343.850189 194.859375,296.234406 228.470032,255.342133
	C296.624054,172.422714 406.644745,172.069183 473.080322,219.869019
	C449.393738,247.753983 433.174072,279.479675 424.300659,315.402863
z"/>
<path fill="#FFFFFF" opacity="1.000000" stroke="none"
	d="
M1544.000000,353.000000
	C1535.857666,353.000000 1528.215332,353.000000 1519.399536,353.000000
	C1520.732422,345.861877 1521.479248,338.985443 1523.336914,332.423523
	C1530.518555,307.057098 1542.936157,284.647064 1562.179810,266.344055
	C1581.444946,248.020615 1604.277100,236.294159 1630.013306,229.989059
	C1645.353271,226.230927 1660.948608,224.393555 1676.678589,225.108948
	C1695.496704,225.964813 1713.805420,229.630417 1731.315674,236.982285
	C1751.215576,245.337494 1768.233765,257.729492 1782.251221,273.929688
	C1796.026001,289.849274 1805.679932,308.163879 1809.939331,328.969025
	C1811.524170,336.710419 1812.420166,344.592865 1813.721436,353.000000
	C1723.293701,353.000000 1633.896851,353.000000 1544.000000,353.000000
z"/>
<path fill="#FFAD5B" opacity="1.000000" stroke="none"
	d="
M538.104980,444.816254
	C541.446655,434.454254 541.489563,434.330719 551.831482,437.921143
	C589.318726,450.935608 626.789795,463.997009 664.235229,477.131104
	C680.792603,482.938660 697.274292,488.962219 713.789917,494.888855
	C715.155334,495.378845 716.517639,495.877716 718.204346,496.489594
	C713.880981,506.764008 709.690491,516.722778 705.252625,527.269531
	C691.199768,520.370911 677.193054,513.514771 663.203979,506.623016
	C641.319702,495.841522 619.455078,485.020233 597.567444,474.245667
	C581.155762,466.166718 564.722900,458.130646 548.294800,450.085114
	C544.924622,448.434570 541.533569,446.826569 538.104980,444.816254
z"/>
<path fill="#FFAD5B" opacity="1.000000" stroke="none"
	d="
M636.965942,246.010040
	C658.524841,235.614197 679.697083,225.275787 700.964661,215.137344
	C702.228149,214.535019 705.387756,215.036972 705.755493,215.869080
	C709.852051,225.137283 713.572205,234.571854 717.518799,244.268585
	C658.454529,264.513550 599.990417,284.552826 541.177551,304.711670
	C539.961243,302.164520 538.377197,299.638245 537.625061,296.884766
	C537.322327,295.776550 538.483582,293.455994 539.589111,292.899017
	C553.275818,286.003601 567.051453,279.282623 580.852478,272.616730
	C594.937256,265.813751 609.071411,259.112915 623.192749,252.385895
	C627.647400,250.263840 632.130432,248.201508 636.965942,246.010040
z"/>
<path fill="#FFAD5B" opacity="1.000000" stroke="none"
	d="
M718.166199,455.928467
	C699.235291,450.922577 680.716309,445.961151 662.194153,441.011749
	C632.747559,433.143097 603.301697,425.271606 573.849121,417.425385
	C565.647034,415.240326 557.422424,413.139893 548.832764,410.902863
	C549.696716,407.060547 550.437744,403.764771 551.351807,399.699738
	C612.859497,408.486786 674.205383,417.250702 735.869141,426.059998
	C733.654297,437.156494 731.529053,447.803711 729.364746,458.646881
	C725.465271,457.682281 722.020996,456.830292 718.166199,455.928467
z"/>
<path fill="#FFAD5B" opacity="1.000000" stroke="none"
	d="
M705.828979,287.928497
	C712.878845,286.062042 719.485962,284.130188 726.175903,282.548981
	C727.235046,282.298645 729.606140,283.429474 729.783936,284.260986
	C731.701965,293.231445 733.321899,302.266296 734.959290,311.295135
	C735.131653,312.245483 734.894592,313.270111 734.832153,314.585083
	C673.504089,322.822327 612.215210,331.054321 551.259827,339.241516
	C550.636963,338.576324 550.259766,338.365326 550.217041,338.100433
	C548.114136,325.048523 547.209106,328.675446 559.718262,325.182465
	C582.588501,318.796234 605.749939,313.456238 628.770569,307.604065
	C654.329529,301.106567 679.866882,294.524261 705.828979,287.928497
z"/>
<path fill="#FFAD5B" opacity="1.000000" stroke="none"
	d="
M623.965271,360.000000
	C644.586243,358.994720 664.725708,358.018555 684.861450,356.972870
	C696.403381,356.373505 707.941040,355.687805 719.477539,354.989655
	C726.052185,354.591736 732.620667,354.090485 739.334534,353.625916
	C739.334534,364.959076 739.334534,375.614807 739.334534,385.983887
	C732.481445,385.983887 726.291260,386.239441 720.131531,385.915863
	C713.238464,385.553802 706.385254,384.458618 699.492981,384.052338
	C685.632507,383.235260 671.745605,382.850250 657.891113,381.954163
	C640.295349,380.816071 622.722656,379.324615 605.136353,378.034576
	C599.373230,377.611786 593.600403,377.312469 587.829346,377.008453
	C576.458252,376.409332 565.085327,375.846313 553.370117,375.250946
	C553.370117,371.378845 553.370117,367.992615 553.370117,363.825409
	C576.758667,362.549286 600.120422,361.274628 623.965271,360.000000
z"/>
</svg>
