<?xml version="1.0" encoding="UTF-8"?>
<svg id="Layer_1" data-name="Layer 1" xmlns="http://www.w3.org/2000/svg" width="810.82" height="177.25" viewBox="0 0 810.82 177.25">
  <defs>
    <style>
      .cls-1 {
        fill: #fff;
      }
    </style>
  </defs>
  <g>
    <path class="cls-1" d="M202.58,58.73c-7.98-12.52-20.37-21.17-34.86-24.38-3.34-.74-6.69-1.15-10.03-1.27C140.76,12.02,115.77,0,88.62,0,39.75,0,0,39.75,0,88.62s39.75,88.63,88.62,88.63c27.14,0,52.15-12.02,69.07-33.09,9.82-.33,19.42-3.25,27.92-8.68,12.52-7.98,21.17-20.37,24.38-34.86,3.2-14.5.57-29.37-7.41-41.89ZM88.62,168.15c-43.85,0-79.53-35.68-79.53-79.53S44.77,9.1,88.62,9.1c22.15,0,42.69,8.91,57.66,24.73-7.19,1.24-14.12,3.9-20.45,7.94-1.99,1.27-3.86,2.66-5.65,4.14-9.1-6.72-20.15-10.4-31.55-10.4-29.29,0-53.11,23.83-53.11,53.11s23.83,53.12,53.11,53.12c11.38,0,22.44-3.67,31.53-10.38,6.74,5.62,14.76,9.59,23.57,11.54.86.19,1.72.35,2.58.5-14.97,15.84-35.53,24.76-57.68,24.76ZM108.86,118.52c1.45,2.27,3.04,4.4,4.76,6.41-7.32,5.04-16.04,7.79-25,7.79-24.31,0-44.09-19.78-44.09-44.09s19.78-44.09,44.09-44.09c8.97,0,17.67,2.74,24.99,7.78-5.95,6.89-10.14,15.18-12.16,24.32-3.2,14.5-.57,29.37,7.41,41.89ZM201.11,98.66c-2.68,12.12-9.92,22.48-20.39,29.16-5.15,3.29-10.78,5.48-16.61,6.56l-37.99-22.49-1.39,2.06,27.59,21.06c-2.21-.17-4.43-.49-6.64-.98-12.12-2.68-22.48-9.92-29.16-20.39-6.68-10.47-8.88-22.91-6.2-35.03,2.68-12.12,9.92-22.48,20.39-29.16,6.43-4.1,13.61-6.51,21-7.14l-27.36,20.52,1.37,2.07,37.96-22.05c.69.12,1.37.25,2.06.4,12.12,2.68,22.48,9.92,29.16,20.39,6.68,10.47,8.88,22.91,6.2,35.03Z"/>
    <polygon class="cls-1" points="129.66 72.61 171.78 58.18 168.86 51.05 128.72 70.31 129.66 72.61"/>
    <polygon class="cls-1" points="132 80.94 176.13 75.01 174.65 67.45 131.52 78.5 132 80.94"/>
    <polygon class="cls-1" points="132.67 89.56 177.11 92.36 177.14 84.66 132.68 87.08 132.67 89.56"/>
    <polygon class="cls-1" points="131.65 98.16 174.69 109.57 176.22 102.02 132.14 95.73 131.65 98.16"/>
    <polygon class="cls-1" points="128.97 106.39 168.95 125.98 171.93 118.87 129.93 104.1 128.97 106.39"/>
  </g>
  <path class="cls-1" d="M299.02,135.66c-8.49,0-16.28-1.95-23.35-5.84-7.08-3.89-12.68-9.34-16.81-16.36-4.13-7.02-6.19-14.95-6.19-23.79s2.06-16.78,6.19-23.79c4.13-7.02,9.73-12.47,16.81-16.36s14.86-5.84,23.35-5.84c6.84,0,13.18,1.24,19.02,3.71s10.79,5.99,14.86,10.53c4.07,4.54,7.05,9.82,8.93,15.83h-11.14c-2.36-6.37-6.37-11.32-12.03-14.86s-12.21-5.31-19.64-5.31c-6.61,0-12.59,1.53-17.96,4.6-5.37,3.07-9.64,7.31-12.83,12.74-3.18,5.43-4.78,11.68-4.78,18.75s1.59,13.33,4.78,18.75c3.18,5.43,7.46,9.67,12.83,12.74,5.37,3.07,11.35,4.6,17.96,4.6,7.55,0,14.12-1.83,19.73-5.48,5.6-3.65,9.58-8.84,11.94-15.57h11.14c-1.89,6.25-4.86,11.71-8.93,16.36-4.07,4.66-9.02,8.26-14.86,10.79-5.84,2.53-12.18,3.8-19.02,3.8Z"/>
  <path class="cls-1" d="M399.85,135.66c-8.38,0-16.1-1.97-23.17-5.93-7.08-3.95-12.68-9.43-16.81-16.45-4.13-7.02-6.19-14.89-6.19-23.62s2.06-16.6,6.19-23.62c4.13-7.02,9.82-12.5,17.07-16.45,7.25-3.95,15.12-5.93,23.62-5.93s16.36,1.83,23.26,5.48c6.9,3.66,12.26,8.76,16.1,15.3,3.83,6.54,5.75,13.83,5.75,21.85,0,1.65-.06,3.21-.18,4.69-.12,1.48-.24,2.68-.35,3.63h-80.85c.71,6.01,2.71,11.38,6.01,16.1,3.3,4.72,7.55,8.4,12.74,11.06,5.19,2.65,10.79,3.98,16.81,3.98,7.67,0,14.12-1.5,19.37-4.51,5.25-3.01,9.35-7.05,12.3-12.12h11.14c-2.24,5.31-5.31,9.91-9.2,13.8s-8.67,6.99-14.33,9.29-12.09,3.45-19.28,3.45ZM435.06,84.53c-.24-5.9-1.86-11.17-4.87-15.83-3.01-4.66-7.08-8.34-12.21-11.06-5.13-2.71-10.88-4.07-17.25-4.07s-12.21,1.3-17.51,3.89c-5.31,2.6-9.61,6.25-12.91,10.97-3.3,4.72-5.31,10.08-6.01,16.1h70.76Z"/>
  <path class="cls-1" d="M460.53,133.89V45.43h9.02l1.42,12.74h1.06c3.18-4.25,7.55-7.72,13.09-10.44,5.54-2.71,11.79-4.07,18.75-4.07,7.67,0,14.48,1.65,20.43,4.95,5.95,3.3,10.61,7.96,13.98,13.98,3.36,6.02,5.04,13.03,5.04,21.05v50.24h-10.26v-50.06c0-6.01-1.33-11.29-3.98-15.83-2.65-4.54-6.25-8.08-10.79-10.62-4.54-2.53-9.64-3.8-15.3-3.8s-11.12,1.3-16.01,3.89c-4.9,2.6-8.79,6.19-11.68,10.79-2.89,4.6-4.33,9.91-4.33,15.92v49.71h-10.44Z"/>
  <path class="cls-1" d="M596.77,135.66c-8.38,0-15.51-1.21-21.41-3.63-5.9-2.42-10.38-5.69-13.45-9.82-3.07-4.13-4.6-8.78-4.6-13.98h10.61c0,3.3,1.12,6.28,3.36,8.93,2.24,2.65,5.54,4.75,9.91,6.28,4.36,1.53,9.55,2.3,15.57,2.3,8.73,0,15.3-1.42,19.73-4.25,4.42-2.83,6.63-6.54,6.63-11.14,0-4.13-1.5-7.37-4.51-9.73-3.01-2.36-7.87-4.01-14.6-4.95l-17.69-2.65c-8.84-1.42-15.57-4.1-20.17-8.05-4.6-3.95-6.9-9.35-6.9-16.19,0-4.83,1.33-9.17,3.98-13,2.65-3.83,6.63-6.81,11.94-8.93,5.31-2.12,11.91-3.18,19.81-3.18,7.43,0,14.03,1.21,19.81,3.63,5.78,2.42,10.23,5.69,13.36,9.82,3.12,4.13,4.69,8.79,4.69,13.98h-10.79c0-3.18-1.12-6.07-3.36-8.67-2.24-2.59-5.37-4.72-9.38-6.37-4.01-1.65-8.79-2.48-14.33-2.48-8.26,0-14.51,1.33-18.75,3.98-4.25,2.65-6.37,6.4-6.37,11.23,0,3.78,1.44,6.78,4.33,9.02,2.89,2.24,7.52,3.83,13.89,4.78l17.69,2.65c9.32,1.53,16.33,4.33,21.05,8.4,4.72,4.07,7.08,9.64,7.08,16.72,0,4.84-1.39,9.17-4.16,13-2.77,3.83-6.93,6.84-12.47,9.02-5.54,2.18-12.38,3.27-20.52,3.27Z"/>
  <path class="cls-1" d="M650.9,169.27v-9.91h15.04c2.59,0,4.57-.5,5.93-1.5,1.35-1,2.5-2.63,3.45-4.86l7.61-18.75.53,9.38-42.46-98.18h11.85l32.2,75.89h4.07l29.9-75.89h11.85l-45.46,112.34c-1.77,4.13-4.01,7.08-6.72,8.84-2.71,1.77-6.49,2.65-11.32,2.65h-16.45Z"/>
  <path class="cls-1" d="M773.67,135.66c-8.38,0-15.51-1.21-21.41-3.63-5.9-2.42-10.38-5.69-13.45-9.82-3.07-4.13-4.6-8.78-4.6-13.98h10.61c0,3.3,1.12,6.28,3.36,8.93,2.24,2.65,5.54,4.75,9.91,6.28,4.36,1.53,9.55,2.3,15.57,2.3,8.73,0,15.3-1.42,19.73-4.25,4.42-2.83,6.63-6.54,6.63-11.14,0-4.13-1.5-7.37-4.51-9.73-3.01-2.36-7.87-4.01-14.6-4.95l-17.69-2.65c-8.84-1.42-15.57-4.1-20.17-8.05-4.6-3.95-6.9-9.35-6.9-16.19,0-4.83,1.33-9.17,3.98-13,2.65-3.83,6.63-6.81,11.94-8.93,5.31-2.12,11.91-3.18,19.81-3.18,7.43,0,14.03,1.21,19.81,3.63,5.78,2.42,10.23,5.69,13.36,9.82,3.12,4.13,4.69,8.79,4.69,13.98h-10.79c0-3.18-1.12-6.07-3.36-8.67-2.24-2.59-5.37-4.72-9.38-6.37-4.01-1.65-8.79-2.48-14.33-2.48-8.26,0-14.51,1.33-18.75,3.98-4.25,2.65-6.37,6.4-6.37,11.23,0,3.78,1.44,6.78,4.33,9.02,2.89,2.24,7.52,3.83,13.89,4.78l17.69,2.65c9.32,1.53,16.33,4.33,21.05,8.4,4.72,4.07,7.08,9.64,7.08,16.72,0,4.84-1.39,9.17-4.16,13-2.77,3.83-6.93,6.84-12.47,9.02-5.54,2.18-12.38,3.27-20.52,3.27Z"/>
</svg>
